# xmcd
#
# Track frame offsets:
#	150
#	11071
#	26755
#	40572
#	52660
#	67641
#	79996
#	96280
#	107176
#	119308
#	131311
#	146336
#	158617
#	173756
#
# Disc length: 2517 seconds
# Revision: 0
# Processed by: cddbd v1.5.2PL0 Copyright (c) Steve Scherf et al.
# Submitted via: dBpowerAMP V12.0
#
DISCID=a309d30e
DTITLE=Michael Cleveland and Flamekeeper - Fired Up
DYEAR=2011
DGENRE=Country
TTITLE0=Dixie Special
TTITLE1=Big Wide Strum
TTITLE2=I'm Yours
TTITLE3=I'm Gonna Ride That Steamboat
TTITLE4=Goin' Up Dry Branch
TTITLE5=The Nights Are So Long
TTITLE6=Untrue Blues
TTITLE7=I've Got the Railroad Blues
TTITLE8=Slowly
TTITLE9=Monster Truck
TTITLE10=Hard Time Banjo Blues
TTITLE11=Going Back to Old Virginia
TTITLE12=Maine Line
TTITLE13=Bigger Hands Than Mine
EXTD=
EXTT0=
EXTT1=
EXTT2=
EXTT3=
EXTT4=
EXTT5=
EXTT6=
EXTT7=
EXTT8=
EXTT9=
EXTT10=
EXTT11=
EXTT12=
EXTT13=
PLAYORDER=
